<?xml version="1.0" standalone="no"?>
<!DOCTYPE svg PUBLIC "-//W3C//DTD SVG 20010904//EN"
 "http://www.w3.org/TR/2001/REC-SVG-20010904/DTD/svg10.dtd">
<svg version="1.0" xmlns="http://www.w3.org/2000/svg"
 width="512.000000pt" height="512.000000pt" viewBox="0 0 512.000000 512.000000"
 preserveAspectRatio="xMidYMid meet">

<g transform="translate(0.000000,512.000000) scale(0.100000,-0.100000)"
stroke="none">
<path d="M0 4360 l0 -200 2560 0 2560 0 0 200 0 200 -2560 0 -2560 0 0 -200z"/>
<path d="M0 3160 l0 -600 2560 0 2560 0 0 600 0 600 -2560 0 -2560 0 0 -600z
m4720 0 l0 -200 -2160 0 -2160 0 0 200 0 200 2160 0 2160 0 0 -200z"/>
<path d="M0 1360 l0 -800 2560 0 2560 0 0 800 0 800 -2560 0 -2560 0 0 -800z
m4720 0 l0 -400 -2160 0 -2160 0 0 400 0 400 2160 0 2160 0 0 -400z"/>
</g>
</svg>
