<?xml version="1.0" standalone="no"?>
<!DOCTYPE svg PUBLIC "-//W3C//DTD SVG 20010904//EN" "http://www.w3.org/TR/2001/REC-SVG-20010904/DTD/svg10.dtd">
<svg version="1.0" xmlns="http://www.w3.org/2000/svg"
    width="512.000000pt" height="512.000000pt" viewBox="0 0 512.000000 512.000000"
    preserveAspectRatio="xMidYMid meet">

    <g transform="translate(0.000000,512.000000) scale(0.100000,-0.100000)" stroke="none">
        <path
            d="M1163 4785 c-85 -23 -153 -63 -219 -129 -34 -34 -73 -85 -88 -114
-59 -117 -56 -2 -56 -1982 0 -1980 -3 -1865 56 -1982 34 -67 135 -168 202
-202 114 -58 60 -56 1498 -56 858 0 1340 4 1375 10 183 35 344 196 379 379 14
75 14 3149 0 3188 -14 37 -846 871 -887 889 -48 21 -2182 20 -2260 -1z m1877
-573 c0 -290 6 -335 56 -434 34 -67 135 -168 202 -202 95 -48 154 -56 440 -56
l262 0 -2 -1389 c-3 -1386 -3 -1390 -24 -1417 -11 -15 -33 -37 -48 -48 -27
-21 -30 -21 -1366 -21 -1336 0 -1339 0 -1366 21 -15 11 -37 33 -48 48 l-21 27
-3 1792 c-1 986 0 1806 3 1824 7 40 49 91 90 109 24 11 204 13 928 14 l897 0
0 -268z m683 -370 c-239 -3 -261 -1 -304 35 -55 46 -59 69 -59 315 l0 223 285
-285 285 -285 -207 -3z" />
    </g>
</svg>