<?xml version="1.0" standalone="no"?>
<!DOCTYPE svg PUBLIC "-//W3C//DTD SVG 20010904//EN"
 "http://www.w3.org/TR/2001/REC-SVG-20010904/DTD/svg10.dtd">
<svg version="1.0" xmlns="http://www.w3.org/2000/svg"
 width="512.000000pt" height="512.000000pt" viewBox="0 0 512.000000 512.000000"
 preserveAspectRatio="xMidYMid meet">

<g transform="translate(0.000000,512.000000) scale(0.100000,-0.100000)"
 stroke="none">
<path d="M2495 4146 c-37 -17 -70 -52 -84 -89 -8 -20 -11 -420 -11 -1290 l0
-1261 -198 196 c-166 165 -203 197 -235 203 -76 14 -148 -20 -182 -86 -18 -33
-20 -101 -4 -132 16 -31 678 -695 711 -713 35 -18 101 -18 136 0 41 22 687
676 707 715 48 96 -33 221 -142 221 -24 0 -56 -6 -71 -14 -15 -8 -110 -98
-212 -200 l-185 -186 -5 1274 c-5 1268 -5 1275 -26 1302 -11 15 -32 37 -46 47
-34 25 -113 32 -153 13z"/>
</g>
</svg>
