<?xml version="1.0" standalone="no"?>
<!DOCTYPE svg PUBLIC "-//W3C//DTD SVG 20010904//EN"
 "http://www.w3.org/TR/2001/REC-SVG-20010904/DTD/svg10.dtd">
<svg version="1.0" xmlns="http://www.w3.org/2000/svg"
 width="512.000000pt" height="512.000000pt" viewBox="0 0 512.000000 512.000000"
 preserveAspectRatio="xMidYMid meet">

<g transform="translate(0.000000,512.000000) scale(0.100000,-0.100000)" stroke="none">
<path d="M2955 4833 c-211 -51 -2084 -561 -2120 -577 -144 -66 -246 -242 -232
-397 7 -78 794 -3012 825 -3077 28 -58 106 -143 153 -167 16 -9 29 -21 29 -28
0 -6 11 -36 25 -65 35 -75 113 -153 193 -193 l67 -34 1155 0 1155 0 68 33 c86
43 157 114 199 199 l33 68 0 1285 c0 1206 -1 1287 -18 1320 -16 33 -624 769
-705 854 -47 48 -103 74 -181 82 -34 4 -61 8 -61 10 0 26 -119 432 -137 468
-51 101 -152 182 -267 212 -49 13 -140 17 -181 7z m229 -112 c68 -33 122 -86
152 -149 9 -20 39 -117 65 -215 27 -99 51 -188 54 -198 6 -18 -21 -19 -767
-21 l-773 -3 -55 -22 c-120 -49 -213 -150 -250 -271 -20 -63 -20 -99 -20
-1601 l-1 -1536 -44 48 c-29 32 -50 67 -64 110 -11 34 -195 712 -408 1507
-433 1614 -416 1533 -361 1651 30 65 89 129 147 159 22 11 395 115 828 231
433 116 901 242 1038 280 220 60 259 68 322 65 57 -2 86 -10 137 -35z m450
-671 l25 -9 3 -303 3 -303 32 -67 c41 -88 113 -160 201 -201 l67 -32 230 -5
230 -5 3 -1242 c2 -1232 2 -1242 -18 -1297 -26 -69 -97 -149 -164 -184 l-51
-27 -1127 -3 c-1114 -2 -1127 -2 -1181 18 -77 29 -140 88 -179 168 l-33 67 0
1585 0 1585 26 56 c36 76 90 133 157 166 l57 28 805 5 c443 3 824 6 847 8 23
1 53 -2 67 -8z m387 -407 c150 -181 293 -352 318 -381 l45 -54 -205 4 c-198 3
-205 4 -254 30 -64 33 -120 89 -153 153 -27 50 -27 51 -30 313 -2 144 -1 262
1 262 3 0 128 -147 278 -327z"/>
<path d="M2322 2525 c-17 -14 -101 -118 -188 -232 -149 -196 -158 -209 -162
-258 l-4 -52 153 -203 c180 -238 206 -267 254 -276 79 -14 155 48 155 128 0
51 -3 57 -143 240 l-119 157 64 83 c198 256 198 255 198 310 0 45 -4 54 -39
89 -35 35 -44 39 -89 39 -39 0 -57 -6 -80 -25z m116 -67 c29 -29 11 -64 -123
-238 -74 -96 -135 -182 -135 -191 0 -9 61 -96 135 -194 83 -109 135 -186 135
-200 0 -28 -25 -55 -50 -55 -25 0 -35 11 -205 236 -113 148 -146 198 -143 217
2 14 74 118 161 231 138 180 161 206 185 206 16 0 33 -5 40 -12z"/>
<path d="M3091 2525 c-16 -14 -37 -45 -45 -68 -43 -116 -246 -808 -246 -838 0
-69 61 -129 133 -129 40 0 97 35 114 70 6 14 69 213 139 443 l127 417 -18 46
c-22 57 -62 84 -127 84 -35 0 -54 -6 -77 -25z m124 -78 c14 -23 8 -48 -112
-442 -110 -362 -130 -419 -150 -428 -34 -15 -73 5 -73 39 0 27 232 800 250
834 15 29 65 27 85 -3z"/>
<path d="M3626 2529 c-51 -40 -71 -113 -44 -162 6 -12 65 -93 131 -179 79
-104 116 -161 111 -170 -4 -7 -61 -84 -127 -170 -92 -122 -120 -165 -124 -196
-6 -47 16 -98 55 -127 34 -25 108 -27 144 -3 22 14 250 304 334 423 31 43 38
87 21 126 -22 54 -332 454 -362 467 -42 19 -109 15 -139 -9z m126 -86 c33 -37
284 -367 297 -392 6 -11 8 -28 3 -39 -4 -10 -76 -109 -161 -221 -103 -134
-163 -204 -178 -207 -29 -8 -63 20 -63 49 0 11 61 100 135 198 74 98 135 186
135 197 0 11 -61 100 -135 197 -74 98 -135 184 -135 192 0 56 60 71 102 26z"/>
</g>
</svg>
