<?xml version="1.0" standalone="no"?>
<!DOCTYPE svg PUBLIC "-//W3C//DTD SVG 20010904//EN" "http://www.w3.org/TR/2001/REC-SVG-20010904/DTD/svg10.dtd">
<svg version="1.0" xmlns="http://www.w3.org/2000/svg"
    width="512.000000pt" height="512.000000pt" viewBox="0 0 512.000000 512.000000"
    preserveAspectRatio="xMidYMid meet">

    <g transform="translate(0.000000,512.000000) scale(0.100000,-0.100000)" stroke="none">
        <path
            d="M501 5105 c-178 -39 -348 -172 -429 -336 -77 -155 -72 5 -72 -2209 0
-2214 -5 -2054 72 -2209 82 -166 251 -297 434 -336 104 -22 4004 -22 4108 0
239 50 441 252 491 491 22 104 22 4004 0 4108 -50 239 -252 441 -491 491 -101
21 -4014 21 -4113 0z m4110 -336 c71 -33 125 -87 158 -158 l26 -56 3 -1086 2
-1087 -242 247 c-134 135 -350 354 -480 486 l-238 240 -298 -300 c-164 -165
-522 -527 -795 -805 l-496 -505 -328 326 -328 327 -635 -584 -635 -583 -3
1642 c-2 1802 -6 1693 58 1788 36 55 91 96 163 120 50 18 147 18 2032 16
l1980 -2 56 -26z m-288 -2367 l478 -478 -3 -679 -3 -680 -26 -56 c-33 -71 -87
-125 -158 -158 l-56 -26 -451 -3 -450 -3 -587 595 c-323 327 -587 598 -587
602 0 9 1351 1364 1360 1364 3 0 220 -215 483 -478z m-1918 -1282 l800 -800
-1320 2 -1320 3 -56 26 c-71 34 -125 87 -158 158 -23 50 -26 68 -26 171 l0
114 628 563 c346 310 634 563 640 563 7 0 372 -360 812 -800z" />
        <path
            d="M1141 4465 c-178 -39 -348 -172 -429 -336 -95 -193 -95 -385 0 -578
82 -166 251 -297 434 -336 451 -96 855 308 759 759 -72 342 -420 565 -764 491z
m271 -337 c199 -92 248 -358 93 -513 -122 -121 -328 -121 -450 0 -78 78 -111
204 -82 306 57 194 259 289 439 207z" />
    </g>
</svg>