<?xml version="1.0" standalone="no"?>
<!DOCTYPE svg PUBLIC "-//W3C//DTD SVG 20010904//EN"
 "http://www.w3.org/TR/2001/REC-SVG-20010904/DTD/svg10.dtd">
<svg version="1.0" xmlns="http://www.w3.org/2000/svg"
 width="512.000000pt" height="512.000000pt" viewBox="0 0 512.000000 512.000000"
 preserveAspectRatio="xMidYMid meet">

<g transform="translate(0.000000,512.000000) scale(0.100000,-0.100000)"
stroke="none">
<path d="M1005 5066 c-113 -36 -199 -110 -248 -214 l-32 -67 0 -2220 0 -2220
27 -58 c53 -113 125 -180 235 -218 55 -18 97 -19 1543 -19 1653 0 1527 -5
1638 68 64 42 113 104 144 180 l23 57 3 1750 2 1750 -612 612 -613 613 -1035
-1 c-807 0 -1044 -3 -1075 -13z m1995 -554 c0 -336 3 -418 16 -467 30 -118
103 -206 214 -259 l65 -31 443 -3 442 -3 0 -1680 c0 -1855 5 -1717 -63 -1787
-18 -19 -50 -43 -72 -55 l-40 -22 -1475 0 -1475 0 -40 21 c-54 29 -94 70 -116
119 -18 38 -19 127 -19 2218 0 1945 2 2182 16 2215 20 49 70 100 119 123 38
18 86 19 1013 19 l972 0 0 -408z m703 -600 c-407 -3 -413 -2 -481 72 -22 24
-45 61 -51 82 -7 24 -11 173 -11 394 l0 355 450 -450 450 -450 -357 -3z"/>
<path d="M1713 1488 c-53 -26 -43 -120 14 -132 77 -17 132 57 86 113 -21 25
-70 35 -100 19z"/>
<path d="M2123 1271 c-102 -26 -171 -110 -160 -193 11 -80 77 -130 214 -163
56 -13 85 -26 105 -46 34 -33 35 -50 5 -84 -49 -57 -171 -40 -204 29 -17 36
-17 36 -81 36 l-64 0 6 -32 c18 -90 110 -157 226 -166 119 -8 225 39 256 115
32 75 7 152 -63 199 -18 12 -70 32 -115 44 -121 32 -144 44 -152 75 -14 55 54
103 125 88 35 -7 79 -49 79 -74 0 -17 8 -19 64 -19 36 0 67 4 70 8 10 17 -15
83 -45 116 -16 19 -48 41 -71 50 -48 20 -150 29 -195 17z"/>
<path d="M2724 1262 c-108 -38 -166 -115 -184 -242 -17 -120 25 -250 100 -311
102 -85 274 -76 370 20 101 101 118 300 36 430 -63 99 -206 145 -322 103z
m181 -132 c19 -18 38 -51 45 -76 16 -57 8 -179 -14 -222 -51 -98 -192 -95
-242 4 -28 57 -27 205 2 254 50 86 143 104 209 40z"/>
<path d="M3459 1271 c-37 -12 -71 -31 -96 -54 l-23 -20 0 36 0 37 -65 0 -65 0
0 -305 0 -305 70 0 70 0 0 219 c0 205 1 220 21 244 40 52 137 57 181 10 22
-24 23 -30 26 -249 l4 -224 64 0 64 0 0 228 c0 134 -5 243 -11 267 -26 92
-138 146 -240 116z"/>
<path d="M1690 936 c0 -399 -1 -406 -82 -406 l-38 0 0 -55 0 -55 68 0 c85 0
128 22 159 80 23 43 23 48 23 407 l0 363 -65 0 -65 0 0 -334z"/>
<path d="M1420 778 c-55 -60 10 -144 90 -116 52 18 65 66 29 112 -27 34 -88
37 -119 4z"/>
</g>
</svg>
