<?xml version="1.0" standalone="no"?>
<!DOCTYPE svg PUBLIC "-//W3C//DTD SVG 20010904//EN"
 "http://www.w3.org/TR/2001/REC-SVG-20010904/DTD/svg10.dtd">
<svg version="1.0" xmlns="http://www.w3.org/2000/svg"
 width="512.000000pt" height="512.000000pt" viewBox="0 0 512.000000 512.000000"
 preserveAspectRatio="xMidYMid meet">

<g transform="translate(0.000000,512.000000) scale(0.100000,-0.100000)"
 stroke="none">
<path d="M1613 5105 c-153 -42 -269 -151 -315 -297 -17 -57 -18 -138 -18
-1909 0 -1846 0 -1850 21 -1911 38 -114 115 -205 216 -257 104 -53 62 -51
1380 -51 856 0 1238 3 1275 11 130 27 246 122 307 248 l36 76 0 1285 0 1285
-27 57 c-34 73 -908 1299 -969 1358 -49 49 -131 93 -200 109 -28 7 -341 10
-849 10 -661 0 -814 -3 -857 -14z m1705 -143 l22 -13 0 -522 c0 -404 3 -533
14 -572 35 -132 120 -234 245 -294 l76 -36 353 -3 352 -3 -2 -1237 -3 -1237
-23 -46 c-31 -64 -85 -117 -151 -148 l-56 -26 -1250 0 -1250 0 -52 27 c-64 34
-115 86 -145 147 l-23 46 -3 1840 c-2 1626 0 1845 13 1885 32 94 97 156 198
192 49 17 102 17 857 15 634 -2 810 -5 828 -15z m580 -719 c220 -308 403 -566
407 -573 5 -8 -70 -10 -297 -8 -293 3 -304 4 -350 26 -60 30 -119 89 -149 150
l-24 47 -3 470 c-2 296 1 466 7 460 5 -6 189 -263 409 -572z"/>
<path d="M821 4734 c-12 -9 -67 -72 -122 -141 -110 -137 -120 -165 -73 -202
41 -32 63 -26 116 31 l48 52 0 -1574 0 -1574 -48 52 c-54 58 -84 66 -120 32
-42 -40 -31 -69 81 -207 113 -139 142 -162 181 -141 27 15 213 241 227 276 11
28 -3 67 -30 81 -37 21 -62 12 -107 -36 l-44 -48 0 1569 0 1569 36 -47 c21
-25 48 -49 61 -52 53 -14 103 39 84 89 -13 33 -198 260 -224 274 -29 17 -38
16 -66 -3z"/>
<path d="M1800 413 c-141 -113 -160 -138 -142 -177 16 -35 269 -236 297 -236
31 0 63 29 71 63 6 25 0 34 -46 78 l-52 49 973 0 973 0 -52 -48 c-59 -55 -65
-80 -27 -117 41 -42 63 -34 202 78 142 115 163 141 146 180 -17 36 -269 237
-298 237 -31 0 -63 -29 -71 -63 -6 -25 0 -34 46 -78 l52 -49 -972 0 -972 0 52
49 c46 44 52 53 46 78 -8 34 -40 63 -71 63 -15 0 -73 -40 -155 -107z"/>
</g>
</svg>
