<?xml version="1.0" standalone="no"?>
<!DOCTYPE svg PUBLIC "-//W3C//DTD SVG 20010904//EN"
 "http://www.w3.org/TR/2001/REC-SVG-20010904/DTD/svg10.dtd">
<svg version="1.0" xmlns="http://www.w3.org/2000/svg"
 width="512.000000pt" height="512.000000pt" viewBox="0 0 512.000000 512.000000"
 preserveAspectRatio="xMidYMid meet">

<g transform="translate(0.000000,512.000000) scale(0.100000,-0.100000)"
stroke="none">
<path d="M415 4786 c-41 -18 -83 -69 -90 -109 -3 -18 -5 -406 -3 -864 3 -822
3 -832 24 -859 39 -53 71 -69 134 -69 63 0 95 16 134 69 21 27 21 38 24 777
l2 749 749 2 c739 3 750 3 777 24 53 39 69 71 69 134 0 63 -16 95 -69 134 -27
21 -36 21 -874 23 -689 2 -853 0 -877 -11z"/>
<path d="M2975 4786 c-94 -41 -124 -168 -58 -247 52 -61 24 -59 827 -59 l736
0 2 -749 c3 -739 3 -750 24 -777 39 -53 71 -69 134 -69 63 0 95 16 134 69 21
27 21 34 21 886 0 852 0 859 -21 886 -11 15 -33 37 -48 48 -27 21 -36 21 -874
23 -689 2 -853 0 -877 -11z"/>
<path d="M415 2226 c-41 -18 -83 -69 -90 -109 -3 -18 -5 -406 -3 -864 3 -822
3 -832 24 -859 11 -15 33 -37 48 -48 27 -21 34 -21 886 -21 852 0 859 0 886
21 53 39 69 71 69 134 0 63 -16 95 -69 134 -27 21 -38 21 -777 24 l-749 2 -2
749 c-3 739 -3 750 -24 777 -11 15 -32 37 -46 47 -33 25 -113 32 -153 13z"/>
<path d="M4575 2226 c-37 -17 -70 -52 -84 -89 -8 -19 -11 -267 -11 -762 l0
-735 -749 -2 c-739 -3 -750 -3 -777 -24 -53 -39 -69 -71 -69 -134 0 -63 16
-95 69 -134 27 -21 34 -21 886 -21 852 0 859 0 886 21 15 11 37 33 48 48 21
27 21 34 21 886 0 852 0 859 -21 886 -11 15 -32 37 -46 47 -34 25 -113 32
-153 13z"/>
</g>
</svg>
