<?xml version="1.0" standalone="no"?>
<!DOCTYPE svg PUBLIC "-//W3C//DTD SVG 20010904//EN"
 "http://www.w3.org/TR/2001/REC-SVG-20010904/DTD/svg10.dtd">
<svg version="1.0" xmlns="http://www.w3.org/2000/svg"
 width="512.000000pt" height="512.000000pt" viewBox="0 0 512.000000 512.000000"
 preserveAspectRatio="xMidYMid meet">

<g transform="translate(0.000000,512.000000) scale(0.100000,-0.100000)"
 stroke="none">
<path d="M1695 4786 c-37 -17 -70 -52 -84 -89 -7 -19 -11 -220 -11 -602 l0
-575 -589 -2 c-578 -3 -590 -3 -617 -24 -53 -39 -69 -71 -69 -134 0 -63 16
-95 69 -134 27 -21 36 -21 726 -21 690 0 699 0 726 21 15 11 37 33 48 48 21
27 21 36 21 726 0 690 0 699 -21 726 -11 15 -32 37 -46 47 -34 25 -113 32
-153 13z"/>
<path d="M3295 4786 c-41 -18 -83 -69 -90 -109 -3 -18 -5 -334 -3 -704 3 -660
3 -672 24 -699 11 -15 33 -37 48 -48 27 -21 36 -21 726 -21 690 0 699 0 726
21 53 39 69 71 69 134 0 63 -16 95 -69 134 -27 21 -39 21 -616 24 l-590 2 -2
590 c-3 577 -3 589 -24 616 -11 15 -32 37 -46 47 -33 25 -113 32 -153 13z"/>
<path d="M415 1906 c-94 -41 -124 -168 -58 -247 51 -60 38 -59 667 -59 l576 0
2 -589 c3 -578 3 -590 24 -617 39 -53 71 -69 134 -69 63 0 95 16 134 69 21 27
21 36 21 726 0 690 0 699 -21 726 -11 15 -33 37 -48 48 -27 21 -38 21 -714 23
-556 2 -693 0 -717 -11z"/>
<path d="M3295 1906 c-41 -18 -83 -69 -90 -109 -3 -18 -5 -334 -3 -704 3 -660
3 -672 24 -699 39 -53 71 -69 134 -69 63 0 95 16 134 69 21 27 21 39 24 616
l2 590 590 2 c577 3 589 3 616 24 53 39 69 71 69 134 0 63 -16 95 -69 134 -27
21 -38 21 -714 23 -556 2 -693 0 -717 -11z"/>
</g>
</svg>
