<?xml version="1.0" standalone="no"?>
<!DOCTYPE svg PUBLIC "-//W3C//DTD SVG 20010904//EN"
 "http://www.w3.org/TR/2001/REC-SVG-20010904/DTD/svg10.dtd">
<svg version="1.0" xmlns="http://www.w3.org/2000/svg"
 width="512.000000pt" height="512.000000pt" viewBox="0 0 512.000000 512.000000"
 preserveAspectRatio="xMidYMid meet">

<g transform="translate(0.000000,512.000000) scale(0.100000,-0.100000)"
 stroke="none">
<path d="M4575 4786 c-16 -8 -978 -963 -2137 -2123 -1886 -1887 -2107 -2112
-2113 -2146 -11 -60 3 -107 44 -148 41 -41 88 -55 148 -44 32 6 68 37 233 201
l196 194 1715 0 c1507 0 1722 2 1774 15 172 45 305 179 350 352 23 86 23 2860
0 2946 -29 111 -108 226 -191 278 l-35 22 114 116 c93 94 117 123 122 154 25
132 -101 237 -220 183z m-166 -733 c13 -11 34 -32 45 -47 21 -27 21 -31 24
-1424 2 -961 0 -1408 -8 -1434 -13 -44 -68 -95 -112 -103 -18 -3 -720 -4
-1561 -3 l-1527 3 583 583 583 583 215 -303 c189 -268 219 -306 259 -326 51
-26 105 -24 151 6 14 9 135 137 268 284 132 147 245 269 250 273 5 3 119 -146
253 -332 134 -185 256 -346 271 -356 15 -12 48 -22 79 -25 61 -4 106 19 145
77 26 38 31 107 11 144 -6 12 -150 214 -320 450 -328 452 -341 467 -418 467
-66 0 -93 -24 -330 -286 -128 -143 -243 -269 -255 -282 l-22 -23 -158 223
c-86 122 -159 227 -161 233 -2 5 90 104 205 219 l209 209 44 -36 c62 -51 161
-94 247 -108 249 -41 512 130 576 376 40 157 1 350 -95 458 -16 19 -30 39 -30
43 0 5 107 116 238 247 l237 238 39 -5 c22 -2 51 -13 65 -23z m-779 -733 c58
-113 -5 -247 -131 -281 -53 -14 -116 -2 -159 31 l-25 19 139 140 c77 77 143
138 148 135 5 -3 17 -23 28 -44z"/>
<path d="M681 4384 c-169 -45 -301 -180 -346 -351 -13 -49 -15 -238 -15 -1367
0 -1289 0 -1310 20 -1351 53 -109 213 -114 277 -10 17 29 18 92 23 1352 5
1315 5 1322 26 1349 11 15 33 37 48 48 27 21 34 21 1349 26 1260 5 1323 6
1352 23 47 29 68 65 73 123 6 69 -25 126 -83 154 -41 20 -61 20 -1356 19
-1114 0 -1322 -3 -1368 -15z"/>
<path d="M1900 3283 c-28 -15 -92 -104 -318 -442 -182 -271 -286 -435 -289
-456 -9 -56 5 -102 45 -144 49 -52 110 -63 175 -32 39 19 62 49 248 327 112
168 207 311 210 316 4 6 18 4 37 -6 73 -37 171 -7 212 66 32 57 24 121 -24
190 -64 93 -110 151 -138 171 -38 28 -114 33 -158 10z"/>
</g>
</svg>
