<?xml version="1.0" standalone="no"?>
<!DOCTYPE svg PUBLIC "-//W3C//DTD SVG 20010904//EN"
 "http://www.w3.org/TR/2001/REC-SVG-20010904/DTD/svg10.dtd">
<svg version="1.0" xmlns="http://www.w3.org/2000/svg"
 width="512.000000pt" height="512.000000pt" viewBox="0 0 512.000000 512.000000"
 preserveAspectRatio="xMidYMid meet">

<g transform="translate(0.000000,512.000000) scale(0.100000,-0.100000)"
stroke="none">
<path d="M681 4784 c-169 -45 -301 -180 -346 -351 -23 -86 -23 -3660 0 -3746
45 -173 178 -307 350 -352 52 -13 277 -15 1875 -15 1980 0 1865 -3 1982 56
116 59 221 197 247 326 8 37 10 454 9 1385 -3 1327 -3 1332 -24 1359 -39 53
-71 69 -134 69 -63 0 -95 -16 -134 -69 -21 -27 -21 -34 -26 -1366 -5 -1332 -5
-1339 -26 -1366 -11 -15 -33 -37 -48 -48 l-27 -21 -1819 0 -1819 0 -27 21
c-15 11 -37 33 -48 48 l-21 27 0 1819 0 1819 21 27 c11 15 33 37 48 48 27 21
34 21 1366 26 1332 5 1339 5 1366 26 53 39 69 71 69 134 0 63 -16 95 -69 134
-27 21 -31 21 -1369 23 -1147 2 -1350 0 -1396 -13z"/>
<path d="M4562 4774 c-25 -13 -290 -352 -1025 -1315 l-992 -1298 -595 594
c-645 644 -614 618 -707 600 -49 -9 -109 -69 -118 -118 -18 -93 -51 -55 678
-785 487 -487 681 -675 706 -683 40 -14 103 -7 136 15 22 15 2074 2687 2122
2765 42 67 23 168 -40 213 -40 29 -121 34 -165 12z"/>
</g>
</svg>
