
<?xml version="1.0" standalone="no"?>
<!DOCTYPE svg PUBLIC "-//W3C//DTD SVG 20010904//EN"
 "http://www.w3.org/TR/2001/REC-SVG-20010904/DTD/svg10.dtd">
<svg version="1.0" xmlns="http://www.w3.org/2000/svg"
 width="512.000000pt" height="512.000000pt" viewBox="0 0 512.000000 512.000000"
 preserveAspectRatio="xMidYMid meet">

<g transform="translate(0.000000,512.000000) scale(0.100000,-0.100000)"
stroke="none">
<path d="M3305 4357 c-61 -61 -53 -154 17 -197 31 -19 50 -20 333 -20 l300 0
-592 -592 c-632 -634 -628 -630 -604 -700 15 -43 47 -75 87 -88 73 -24 67 -30
702 603 l592 592 0 -300 c0 -283 1 -302 20 -333 43 -70 136 -78 197 -17 l33
33 0 481 c0 529 0 525 -60 556 -25 13 -100 15 -511 15 l-481 0 -33 -33z"/>
<path d="M2190 2355 c-22 -10 -257 -238 -622 -603 l-588 -587 0 300 c0 283 -1
302 -20 333 -43 70 -136 78 -197 17 l-33 -33 0 -481 c0 -411 2 -486 15 -511
31 -60 27 -60 556 -60 l481 0 33 33 c61 61 53 154 -17 197 -31 19 -50 20 -333
20 l-300 0 592 593 c653 654 636 634 597 713 -35 69 -100 97 -164 69z"/>
</g>
</svg>
