<?xml version="1.0" standalone="no"?>
<!DOCTYPE svg PUBLIC "-//W3C//DTD SVG 20010904//EN"
 "http://www.w3.org/TR/2001/REC-SVG-20010904/DTD/svg10.dtd">
<svg version="1.0" xmlns="http://www.w3.org/2000/svg"
 width="512.000000pt" height="512.000000pt" viewBox="0 0 512.000000 512.000000"
 preserveAspectRatio="xMidYMid meet">

<g transform="translate(0.000000,512.000000) scale(0.100000,-0.100000)" stroke="none">
<path d="M4330 4359 c-35 -15 -317 -292 -1282 -1257 l-1238 -1237 -487 487
c-321 320 -502 493 -530 507 -56 28 -142 28 -203 0 -31 -14 -102 -77 -232
-207 -199 -200 -227 -239 -228 -322 0 -108 -33 -70 703 -808 375 -375 703
-697 730 -713 141 -92 353 -92 494 0 27 16 692 675 1480 1463 1244 1245 1433
1438 1442 1473 15 56 14 119 -4 163 -21 50 -396 427 -450 453 -54 25 -137 24
-195 -2z"/>
</g>
</svg>
