<?xml version="1.0" standalone="no"?>
<!DOCTYPE svg PUBLIC "-//W3C//DTD SVG 20010904//EN"
 "http://www.w3.org/TR/2001/REC-SVG-20010904/DTD/svg10.dtd">
<svg version="1.0" xmlns="http://www.w3.org/2000/svg"
 width="512.000000pt" height="512.000000pt" viewBox="0 0 512.000000 512.000000"
 preserveAspectRatio="xMidYMid meet">

<g transform="translate(0.000000,512.000000) scale(0.100000,-0.100000)"
fill="#000000" stroke="none">
<path d="M2420 4790 c-747 -61 -1400 -468 -1776 -1107 -62 -105 -99 -183 -154
-322 l-37 -94 -107 269 c-144 360 -152 377 -186 397 -41 24 -83 21 -119 -9
-60 -51 -61 -47 139 -549 166 -414 185 -459 214 -476 17 -10 42 -19 55 -19 22
0 837 363 889 397 37 23 55 77 41 120 -12 38 -59 73 -98 73 -13 0 -156 -61
-319 -135 -162 -74 -297 -133 -299 -131 -2 2 10 39 27 82 192 486 542 865
1005 1089 185 90 350 143 560 181 122 22 455 30 582 14 668 -83 1229 -454
1560 -1031 64 -112 113 -226 164 -385 22 -67 48 -129 59 -139 11 -10 39 -20
63 -22 36 -4 48 -1 75 22 50 42 49 71 -2 227 -246 753 -865 1315 -1650 1498
-198 46 -481 67 -686 50z"/>
<path d="M4600 2216 c-212 -89 -820 -372 -840 -392 -19 -19 -25 -35 -25 -70 0
-39 5 -50 33 -75 22 -19 43 -29 65 -29 21 0 141 50 327 134 162 74 297 133
299 131 7 -7 -53 -152 -107 -258 -295 -583 -826 -973 -1487 -1093 -121 -22
-454 -30 -582 -15 -820 100 -1481 647 -1729 1432 -19 58 -42 113 -53 123 -29
26 -95 32 -126 12 -34 -23 -57 -70 -49 -103 29 -127 98 -311 170 -455 290
-577 838 -1011 1476 -1167 358 -88 755 -88 1103 0 719 182 1293 688 1559 1375
32 81 35 87 44 64 104 -268 246 -608 263 -626 71 -76 199 0 172 103 -11 41
-325 828 -349 875 -15 29 -61 58 -91 58 -10 0 -43 -11 -73 -24z"/>
</g>
</svg>
